<svg height="496pt" viewBox="0 0 496 495" width="496pt" xmlns="http://www.w3.org/2000/svg" xmlns:xlink="http://www.w3.org/1999/xlink"><linearGradient id="a" gradientUnits="userSpaceOnUse" x1="248" x2="248" y1="496.408" y2=".4976"><stop offset="0" stop-color="#9f2fff"/><stop offset="1" stop-color="#0bb1d3"/></linearGradient><path d="m299.121094 450.121094-27.121094-7.746094v-2.136719c9.96875-7.511719 16-19.328125 16-31.832031v-14.34375c0-21.496094-16.007812-39.726562-36.449219-41.503906-11.207031-.972656-22.34375 2.808594-30.574219 10.351562-8.25 7.570313-12.976562 18.320313-12.976562 29.496094v16c0 12.503906 6.03125 24.320312 16 31.832031v2.136719l-27.121094 7.746094c-17.007812 4.863281-28.878906 20.605468-28.878906 38.285156v8h160v-8c0-17.679688-11.871094-33.421875-28.878906-38.285156zm-113.722656 30.285156c2.546874-7.078125 8.378906-12.757812 15.882812-14.894531l38.71875-11.070313v-23.074218l-3.976562-2.3125c-7.527344-4.382813-12.023438-12.101563-12.023438-20.648438v-16c0-6.710938 2.839844-13.160156 7.792969-17.695312 5.007812-4.597657 11.503906-6.800782 18.382812-6.207032 12.230469 1.0625 21.824219 12.289063 21.824219 25.558594v14.34375c0 8.546875-4.496094 16.265625-12.023438 20.648438l-3.976562 2.3125v23.074218l38.71875 11.070313c7.503906 2.144531 13.335938 7.824219 15.882812 14.894531zm281.722656-30.285156-27.121094-7.746094v-2.136719c9.96875-7.511719 16-19.328125 16-31.832031v-14.335938c0-21.503906-16.007812-39.734374-36.449219-41.503906-11.183593-.972656-22.34375 2.808594-30.574219 10.355469-8.25 7.558594-12.976562 18.308594-12.976562 29.484375v16c0 12.503906 6.03125 24.320312 16 31.832031v2.136719l-27.121094 7.746094c-17.007812 4.863281-28.878906 20.605468-28.878906 38.285156v8h160v-8c0-17.679688-11.871094-33.421875-28.878906-38.285156zm-113.722656 30.285156c2.546874-7.078125 8.378906-12.757812 15.882812-14.894531l38.71875-11.070313v-23.074218l-3.976562-2.3125c-7.527344-4.382813-12.023438-12.101563-12.023438-20.648438v-16c0-6.710938 2.839844-13.160156 7.792969-17.695312 5.007812-4.597657 11.496093-6.800782 18.382812-6.207032 12.230469 1.0625 21.824219 12.296875 21.824219 25.566406v14.335938c0 8.546875-4.496094 16.265625-12.023438 20.648438l-3.976562 2.3125v23.074218l38.71875 11.070313c7.503906 2.144531 13.335938 7.824219 15.882812 14.894531zm-222.277344-30.285156-27.121094-7.746094v-2.136719c9.96875-7.511719 16-19.328125 16-31.832031v-14.335938c0-21.503906-16.007812-39.734374-36.449219-41.503906-11.191406-.972656-22.34375 2.808594-30.574219 10.355469-8.25 7.558594-12.976562 18.308594-12.976562 29.484375v16c0 12.503906 6.03125 24.320312 16 31.832031v2.136719l-27.121094 7.746094c-17.007812 4.863281-28.878906 20.605468-28.878906 38.285156v8h160v-8c0-17.679688-11.871094-33.421875-28.878906-38.285156zm-113.722656 30.285156c2.546874-7.078125 8.378906-12.757812 15.882812-14.894531l38.71875-11.070313v-23.074218l-3.976562-2.3125c-7.527344-4.382813-12.023438-12.101563-12.023438-20.648438v-16c0-6.710938 2.839844-13.160156 7.792969-17.695312 5.007812-4.597657 11.503906-6.800782 18.382812-6.207032 12.230469 1.0625 21.824219 12.296875 21.824219 25.566406v14.335938c0 8.546875-4.496094 16.265625-12.023438 20.648438l-3.976562 2.3125v23.074218l38.71875 11.070313c7.503906 2.144531 13.335938 7.824219 15.882812 14.894531zm206.601562-187.054688 73.886719-36.945312-73.886719-36.941406zm16-48 22.113281 11.054688-22.113281 11.058594zm240-212.945312h-165.878906l-47.210938-26.972656c-11.496094-6.578125-26.335937-6.578125-37.832031 0l-47.199219 26.972656h-165.878906c-8.824219 0-16 7.179688-16 16v24c0 8.824219 7.175781 16 16 16v248h16v-248h71.894531v-16h-87.894531v-24h137.878906l-22.902344 13.089844c-6.769531 3.863281-10.976562 11.113281-10.976562 18.910156 0 7.800781 4.207031 15.050781 10.976562 18.914062l21.023438 12.015626v69.070312l3.199219 2.402344c.847656.632812 13.554687 9.917968 36.320312 17.128906-14.871093 14.855469-23.519531 34.984375-23.519531 56.46875 0 44.113281 35.886719 80 80 80s80-35.886719 80-80c0-21.496094-8.648438-41.621094-23.519531-56.46875 22.765625-7.210938 35.472656-16.488281 36.320312-17.128906l3.199219-2.402344v-69.070312l21.023438-12.015626c4.335937-2.472656 7.449218-6.410156 9.25-10.914062h9.726562c4.40625 0 8 3.585938 8 8v48h-6.03125l-17.65625 61.808594-.3125 2.191406c0 17.648438 14.351562 32 32 32s32-14.351562 32-32l-17.96875-64h-6.03125v-48c0-13.230469-10.769531-24-24-24h-9.726562c-1.800782-4.503906-4.921876-8.4375-9.25-10.910156l-22.902344-13.089844h137.878906v24h-56v16h40v248h16v-248c8.824219 0 16-7.175781 16-16v-24c0-8.820312-7.175781-16-16-16zm-64.03125 177.007812c-.519531 8.363282-7.480469 14.992188-15.96875 14.992188s-15.449219-6.628906-15.96875-14.992188l14-49.007812h3.929688zm-103.96875 46.992188c0 35.289062-28.710938 64-64 64s-64-28.710938-64-64c0-20.566406 9.855469-39.589844 26.390625-51.644531 11.042969 2.191406 23.585937 3.644531 37.609375 3.644531 14.015625 0 26.566406-1.453125 37.609375-3.636719 16.527344 12.046875 26.390625 31.070313 26.390625 51.636719zm16-84.308594c-9.136719 5.566406-37.335938 20.308594-80 20.308594-42.679688 0-70.886719-14.75-80-20.308594v-51.617187l61.089844 34.902343c5.742187 3.289063 12.285156 5.023438 18.910156 5.023438s13.167969-1.734375 18.910156-5.023438l61.089844-34.902343zm23.878906-83.691406-92.902344 53.089844c-6.671874 3.816406-15.28125 3.816406-21.953124 0l-98.113282-56.0625c-1.789062-1.035156-2.910156-2.953125-2.910156-5.027344 0-2.070312 1.121094-3.992188 2.910156-5.023438l98.113282-56.0625c3.335937-1.90625 7.136718-2.914062 10.976562-2.914062s7.640625 1.007812 10.976562 2.914062l92.902344 53.085938h-103.878906v16zm-247.878906 16v16h-56v-16zm-56 32h88v16h-88zm0 32h88v16h-88zm0 32h88v16h-88zm296 120h104v16h-104zm0-32h104v16h-104zm104-16h-104v-16h104zm0 0" fill="url(#a)"/></svg>