<svg id="Capa_1" enable-background="new 0 0 512 512" height="512" viewBox="0 0 512 512" width="512" xmlns="http://www.w3.org/2000/svg"><g><g><g><path d="m136.437 30.633h349.614v324.158h-349.614z" fill="#d2e9ff"/><g><path d="m314.165 418.199c-4.268 0-7.727-3.46-7.727-7.727v-55.68c0-4.268 3.46-7.727 7.727-7.727s7.727 3.46 7.727 7.727v55.68c0 4.267-3.46 7.727-7.727 7.727z" fill="#384949"/></g><g><path d="m314.165 457.35c-15.055 0-27.303-12.248-27.303-27.303s12.248-27.303 27.303-27.303 27.303 12.248 27.303 27.303-12.248 27.303-27.303 27.303zm0-39.151c-6.533 0-11.849 5.315-11.849 11.849s5.315 11.849 11.849 11.849 11.849-5.315 11.849-11.849-5.316-11.849-11.849-11.849z" fill="#384949"/></g><path d="m301.118 199.518h-129.142c-2.845 0-5.152-2.306-5.152-5.152v-102.994c0-2.845 2.306-5.152 5.152-5.152h129.142c2.845 0 5.152 2.306 5.152 5.152v102.994c0 2.845-2.307 5.152-5.152 5.152z" fill="#8ac9fe"/><path d="m334.318 305.505h-78.391c-2.845 0-5.152-2.306-5.152-5.152v-54.565c0-2.845 2.306-5.152 5.152-5.152h78.391c2.845 0 5.152 2.306 5.152 5.152v54.565c-.001 2.846-2.307 5.152-5.152 5.152z" fill="#8ac9fe"/><path d="m489.574 361.597v-324.158h-35.088v323.612z" fill="#b3dafe"/><path d="m449.334 305.505h-78.391c-2.845 0-5.152-2.306-5.152-5.152v-54.565c0-2.845 2.306-5.152 5.152-5.152h78.391c2.845 0 5.152 2.306 5.152 5.152v54.565c0 2.846-2.307 5.152-5.152 5.152z" fill="#8ac9fe"/><path d="m506.117 366.468v-23.353c0-4.552-3.69-8.242-8.242-8.242h-373.262c-4.552 0-8.242 3.69-8.242 8.242v23.353c0 4.552 3.69 8.242 8.242 8.242h373.261c4.553 0 8.243-3.69 8.243-8.242z" fill="#0268b4"/><path d="m506.117 42.309v-23.353c0-4.552-3.69-8.242-8.242-8.242h-373.262c-4.552 0-8.242 3.691-8.242 8.242v23.353c0 4.552 3.69 8.242 8.242 8.242h373.261c4.553.001 8.243-3.689 8.243-8.242z" fill="#0268b4"/><g fill="#015a9a"><path d="m468.669 10.755c4.552 0 8.242 3.691 8.242 8.242v23.353c0 4.276-3.255 7.789-7.422 8.201h34.268c4.552 0 8.242-3.69 8.242-8.242v-23.353c0-4.552-3.69-8.242-8.242-8.242z"/><path d="m468.669 334.872c4.552 0 8.242 3.69 8.242 8.242v23.353c0 4.275-3.255 7.789-7.421 8.201h34.267c4.552 0 8.242-3.691 8.242-8.242v-23.354c0-4.552-3.69-8.242-8.242-8.242z"/></g></g><g><path d="m182.642 400.491h-134.537-2.921-8.059c-20.503 0-37.125 16.621-37.125 37.126v63.67h219.768v-63.67c0-20.505-16.622-37.126-37.126-37.126z" fill="#c4e2ff"/><path d="m185.562 400.491h-32.126c20.504 0 37.126 16.622 37.126 37.126v63.67h32.126v-63.67c0-20.505-16.622-37.126-37.126-37.126z" fill="#b3dafe"/><path d="m76.947 328.994v55.758l34.27 22.846 34.27-22.846v-55.758z" fill="#ffbfb1"/><path d="m194.571 247.963c-.383 0-.763.014-1.143.029-6.546-39.139-40.571-68.97-81.569-68.97-40.998 0-75.023 29.831-81.569 68.97-.38-.015-.76-.029-1.143-.029-15.511 0-28.086 12.574-28.086 28.086s12.575 28.086 28.086 28.086c.383 0 .763-.014 1.143-.029 6.546 39.139 40.571 68.97 81.569 68.97 40.998 0 75.023-29.831 81.569-68.97.38.015.76.029 1.143.029 15.511 0 28.086-12.575 28.086-28.086s-12.575-28.086-28.086-28.086z" fill="#fff"/><path d="m194.571 247.963c-.383 0-.763.014-1.143.029-6.546-39.139-40.571-68.97-81.569-68.97-40.998 0-75.023 29.831-81.569 68.97-.38-.015-.76-.029-1.143-.029-15.511 0-28.086 12.574-28.086 28.086s12.575 28.086 28.086 28.086c.383 0 .763-.014 1.143-.029 6.546 39.139 40.571 68.97 81.569 68.97 40.998 0 75.023-29.831 81.569-68.97.38.015.76.029 1.143.029 15.511 0 28.086-12.575 28.086-28.086s-12.575-28.086-28.086-28.086z" fill="#ffcebf"/><path d="m194.571 247.963c-.383 0-.763.014-1.143.029-6.546-39.139-40.571-68.97-81.569-68.97-3.463 0-6.871.23-10.222.643 36.323 4.48 65.354 32.493 71.347 68.327.38-.015.759-.029 1.143-.029 15.511 0 28.086 12.574 28.086 28.085 0 15.512-12.575 28.086-28.086 28.086-.383 0-.763-.014-1.143-.029-5.993 35.833-35.024 63.847-71.347 68.327 3.351.414 6.759.643 10.222.643 40.998 0 75.023-29.831 81.569-68.97.38.016.759.029 1.143.029 15.511 0 28.086-12.574 28.086-28.086 0-15.51-12.575-28.085-28.086-28.085z" fill="#ffbfb1"/><g><g><path d="m71.36 297.397c-4.268 0-7.727-3.46-7.727-7.727v-15.231c0-4.268 3.46-7.727 7.727-7.727 4.268 0 7.727 3.46 7.727 7.727v15.231c0 4.267-3.46 7.727-7.727 7.727z" fill="#444"/></g><g><path d="m152.105 297.397c-4.268 0-7.727-3.46-7.727-7.727v-15.231c0-4.268 3.46-7.727 7.727-7.727s7.727 3.46 7.727 7.727v15.231c0 4.267-3.46 7.727-7.727 7.727z" fill="#444"/></g></g><g><path d="m111.732 340.817c-13.946 0-25.293-11.346-25.293-25.293 0-4.268 3.46-7.727 7.727-7.727 4.268 0 7.727 3.46 7.727 7.727 0 5.425 4.414 9.838 9.838 9.838 5.425 0 9.839-4.413 9.839-9.838 0-4.268 3.46-7.727 7.727-7.727 4.268 0 7.727 3.46 7.727 7.727.002 13.947-11.345 25.293-25.292 25.293z" fill="#ffb09e"/></g><path d="m111.732 407.598-17.565 18.341 6.366 24.95h22.398l6.367-24.95z" fill="#fd544d"/><path d="m100.533 450.889-9.9 50.398h42.195l-9.9-50.398z" fill="#fd544d"/><path d="m77.462 384.752-28.969 15.739 40.871 30.462 22.368-23.354z" fill="#b3dafe"/><path d="m145.487 384.752 28.969 15.739-40.87 30.462-22.369-23.354z" fill="#b3dafe"/><path d="m145.487 384.752-13.114 8.742 12.878 6.997-23.83 17.761 12.165 12.701 40.87-30.462z" fill="#8ac9fe"/><path d="m167.862 151.731c-6.184-9.915-17.182-16.517-29.728-16.517h-67.28c-34.279 0-62.067 27.789-62.067 62.067v50.711h117.481c12.02 0 22.98-4.528 31.277-11.966 5.802 7.289 14.744 11.966 24.784 11.966h31.318v-49.828c0-25.43-20.44-46.076-45.785-46.433z" fill="#c4573a"/><g><path d="m167.862 151.731c-6.184-9.915-17.182-16.517-29.728-16.517h-32.126c12.546 0 23.545 6.602 29.728 16.517 25.346.357 45.785 21.003 45.785 46.433v49.804c1.293.034-3.539.024 32.126.024v-49.828c0-25.43-20.44-46.076-45.785-46.433z" fill="#a74b30"/></g><g><path d="m171.016 317.607h-11.721c-4.268 0-7.727-3.46-7.727-7.727s3.46-7.727 7.727-7.727h11.721c4.268 0 7.727 3.46 7.727 7.727s-3.459 7.727-7.727 7.727z" fill="#ffb09e"/></g><g><path d="m63.139 317.607h-11.721c-4.268 0-7.727-3.46-7.727-7.727s3.46-7.727 7.727-7.727h11.721c4.268 0 7.727 3.46 7.727 7.727s-3.459 7.727-7.727 7.727z" fill="#ffb09e"/></g></g></g><path d="m449.947 130.923h-9.804c-1.011-3.588-2.439-7.001-4.225-10.186l6.937-6.937c1.772-1.773 1.772-4.646 0-6.419l-11.635-11.634c-1.773-1.773-4.646-1.773-6.419 0l-6.937 6.937c-3.185-1.786-6.597-3.214-10.186-4.225v-9.804c0-2.507-2.032-4.539-4.539-4.539h-16.453c-2.507 0-4.539 2.032-4.539 4.539v9.804c-3.588 1.011-7.001 2.439-10.186 4.225l-6.937-6.937c-1.773-1.773-4.646-1.773-6.419 0l-11.634 11.634c-1.772 1.773-1.772 4.646 0 6.419l6.937 6.937c-1.786 3.185-3.214 6.598-4.225 10.186h-9.804c-2.507 0-4.539 2.032-4.539 4.539v16.453c0 2.507 2.032 4.539 4.539 4.539h9.804c1.011 3.588 2.439 7.001 4.225 10.186l-6.937 6.937c-1.772 1.773-1.772 4.646 0 6.419l11.634 11.634c1.773 1.773 4.646 1.773 6.419 0l6.937-6.937c1.935 1.085 3.954 2.038 6.045 2.846 1.351.522 2.732.983 4.14 1.379v9.804c0 2.507 2.032 4.539 4.539 4.539h16.453c2.507 0 4.539-2.032 4.539-4.539v-9.804c3.588-1.011 7.001-2.439 10.186-4.225l6.937 6.937c1.773 1.773 4.646 1.773 6.419 0l11.634-11.634c1.772-1.773 1.772-4.646 0-6.419l-6.937-6.937c1.786-3.185 3.214-6.598 4.225-10.186h9.804c2.507 0 4.539-2.032 4.539-4.539v-16.453c.002-2.507-2.031-4.539-4.537-4.539z" fill="#537983"/><circle cx="394.914" cy="143.688" fill="#b3dafe" r="19.748"/></g></svg>